<?xml version="1.0" encoding="utf-8"?>
<!-- Generator: Adobe Illustrator 16.0.4, SVG Export Plug-In . SVG Version: 6.00 Build 0)  -->
<!DOCTYPE svg PUBLIC "-//W3C//DTD SVG 1.1//EN" "http://www.w3.org/Graphics/SVG/1.1/DTD/svg11.dtd">
<svg version="1.1" id="Layer_1" xmlns="http://www.w3.org/2000/svg" xmlns:xlink="http://www.w3.org/1999/xlink" x="0px" y="0px"
	 width="217.463px" height="55.891px" viewBox="-73.525 -22.3 217.463 55.891"
	 enable-background="new -73.525 -22.3 217.463 55.891" xml:space="preserve">
<g>
	<g>
		<g>
			<defs>
				<rect id="SVGID_1_" x="-73.525" y="-11.55" width="16.556" height="20.234"/>
			</defs>
			<clipPath id="SVGID_2_">
				<use xlink:href="#SVGID_1_"  overflow="visible"/>
			</clipPath>
			<g clip-path="url(#SVGID_2_)">
				<path fill="#1EAEEB" d="M-68.079-9.915l7.995-0.924l2.402,8.348c-0.917,1.42-1.623,3.041-2.048,4.666
					c-0.495,1.92-0.633,3.895-0.422,5.805l-7.57-4.955l-5.021,4.955C-73.027,4.577-72.6,1.194-71.68-2.138
					C-70.833-4.897-69.632-7.513-68.079-9.915z"/>
			</g>
		</g>
	</g>
</g>
<g>
	<g>
		<g>
			<defs>
				<rect id="SVGID_3_" x="-73.168" y="4.229" width="19.172" height="23.414"/>
			</defs>
			<clipPath id="SVGID_4_">
				<use xlink:href="#SVGID_3_"  overflow="visible"/>
			</clipPath>
			<g clip-path="url(#SVGID_4_)">
				<path fill="#124E9F" d="M-67.367,4.944l-5.095,5.088c0.498,3.463,1.696,6.789,3.466,9.762c1.629,2.766,3.609,5.162,6.085,7.141
					l-0.712-7.711l8.915-1.838c-1.131-0.916-2.121-1.977-2.9-3.189c-0.847-1.199-1.485-2.543-1.843-3.959L-67.367,4.944z"/>
			</g>
		</g>
	</g>
</g>
<g>
	<g>
		<g>
			<defs>
				<rect id="SVGID_5_" x="-67.232" y="-22.3" width="23.347" height="18.967"/>
			</defs>
			<clipPath id="SVGID_6_">
				<use xlink:href="#SVGID_5_"  overflow="visible"/>
			</clipPath>
			<g clip-path="url(#SVGID_6_)">
				<path fill="#ACFBE9" d="M-66.518-12.042c2.121-2.477,4.743-4.811,7.711-6.508c2.546-1.488,5.376-2.475,8.347-3.047l5.868,5.309
					l-4.383,7.213c-1.485,0.352-2.968,0.996-4.239,1.846c-1.348,0.842-2.476,1.904-3.398,3.176l-2.549-8.695L-66.518-12.042z"/>
			</g>
		</g>
	</g>
</g>
<g>
	<g>
		<g>
			<defs>
				<rect id="SVGID_7_" x="-35.812" y="-16.288" width="19.093" height="23.494"/>
			</defs>
			<clipPath id="SVGID_8_">
				<use xlink:href="#SVGID_7_"  overflow="visible"/>
			</clipPath>
			<g clip-path="url(#SVGID_8_)">
				<path fill="#124E9F" d="M-35.111-6.03c1.058,0.992,1.983,2.127,2.76,3.404c0.773,1.197,1.412,2.475,1.843,3.82l7.919,5.297
					l5.162-5.371c-0.565-3.113-1.696-6.088-3.255-8.918c-1.629-2.971-3.536-5.59-6.152-7.783v7.637L-35.111-6.03z"/>
			</g>
		</g>
	</g>
</g>
<g>
	<g>
		<g>
			<defs>
				<rect id="SVGID_9_" x="-32.984" y="2.595" width="16.553" height="20.311"/>
			</defs>
			<clipPath id="SVGID_10_">
				<use xlink:href="#SVGID_9_"  overflow="visible"/>
			</clipPath>
			<g clip-path="url(#SVGID_10_)">
				<path fill="#1EAEEB" d="M-29.803,3.45l7.424,4.951l5.162-5.092c0.281,3.258-0.07,6.586-0.917,9.697
					c-0.779,2.967-2.127,5.801-3.823,8.35l-7.919,0.844l-2.408-8.197c1.204-1.846,1.983-3.896,2.335-6.018
					C-29.659,6.423-29.659,4.944-29.803,3.45z"/>
			</g>
		</g>
	</g>
</g>
<g>
	<g>
		<g>
			<defs>
				<rect id="SVGID_11_" x="-46.147" y="14.843" width="23.49" height="18.748"/>
			</defs>
			<clipPath id="SVGID_12_">
				<use xlink:href="#SVGID_11_"  overflow="visible"/>
			</clipPath>
			<g clip-path="url(#SVGID_12_)">
				<path fill="#ACFBE9" d="M-33.342,15.55l2.549,8.484l7.424-0.713c-1.764,2.133-3.814,3.756-6.082,5.248
					c-2.971,2.047-6.299,3.535-9.832,4.309l-6.158-5.162l4.529-7.43c1.485-0.418,2.833-1.062,4.104-1.842
					C-35.536,17.603-34.332,16.681-33.342,15.55z"/>
			</g>
		</g>
	</g>
</g>
<text transform="matrix(1 0 0 1 -12.5415 20.5029)" fill="#476F8A" font-family="'AdventPro-Bold'" font-size="41.0315">R</text>
<text transform="matrix(1 0 0 1 10.5942 20.5029)" fill="#476F8A" font-family="'AdventPro-Bold'" font-size="41.0315">e</text>
<text transform="matrix(1 0 0 1 28.3516 20.5029)" fill="#476F8A" font-family="'AdventPro-Bold'" font-size="41.0315">s</text>
<text transform="matrix(1 0 0 1 46.0371 20.5029)" fill="#476F8A" font-family="'AdventPro-Bold'" font-size="41.0315">p</text>
<text transform="matrix(1 0 0 1 66.2676 20.5029)" fill="#476F8A" font-family="'AdventPro-Bold'" font-size="41.0315">e</text>
<text transform="matrix(1 0 0 1 84.0273 20.5029)" fill="#476F8A" font-family="'AdventPro-Bold'" font-size="41.0315">c</text>
<text transform="matrix(1 0 0 1 99.8008 20.5029)" fill="#476F8A" font-family="'AdventPro-Bold'" font-size="41.0315">t</text>
<text transform="matrix(1 0 0 1 110.5547 20.5029)" fill="#476F8A" font-family="'AdventPro-Bold'" font-size="41.0315">.</text>
<text transform="matrix(1 0 0 1 116.0723 20.5029)" fill="#476F8A" font-family="'AdventPro-Bold'" font-size="41.0315">l</text>
<text transform="matrix(1 0 0 1 123.8535 20.5029)" fill="#476F8A" font-family="'AdventPro-Bold'" font-size="41.0315">y</text>
</svg>
