<?xml version="1.0" encoding="utf-8"?>
<!-- Generator: Adobe Illustrator 16.0.4, SVG Export Plug-In . SVG Version: 6.00 Build 0)  -->
<!DOCTYPE svg PUBLIC "-//W3C//DTD SVG 1.1//EN" "http://www.w3.org/Graphics/SVG/1.1/DTD/svg11.dtd">
<svg version="1.1" id="Layer_1" xmlns="http://www.w3.org/2000/svg" xmlns:xlink="http://www.w3.org/1999/xlink" x="0px" y="0px"
	 width="217.438px" height="56.146px" viewBox="0 0 217.438 56.146" enable-background="new 0 0 217.438 56.146"
	 xml:space="preserve">
<g>
	<g>
		<g>
			<defs>
				<rect id="SVGID_1_" x="272.671" y="140.699" width="16.556" height="20.234"/>
			</defs>
			<clipPath id="SVGID_2_">
				<use xlink:href="#SVGID_1_"  overflow="visible"/>
			</clipPath>
			<g clip-path="url(#SVGID_2_)">
				<path fill="#1EAEEB" d="M278.117,142.334l7.995-0.924l2.402,8.348c-0.917,1.42-1.623,3.041-2.048,4.666
					c-0.495,1.92-0.633,3.895-0.422,5.805l-7.57-4.955l-5.021,4.955c-0.284-3.402,0.144-6.785,1.063-10.117
					C275.363,147.352,276.564,144.736,278.117,142.334z"/>
			</g>
		</g>
	</g>
</g>
<g>
	<g>
		<g>
			<defs>
				<rect id="SVGID_3_" x="273.028" y="156.479" width="19.172" height="23.414"/>
			</defs>
			<clipPath id="SVGID_4_">
				<use xlink:href="#SVGID_3_"  overflow="visible"/>
			</clipPath>
			<g clip-path="url(#SVGID_4_)">
				<path fill="#124E9F" d="M278.829,157.193l-5.095,5.088c0.498,3.463,1.696,6.789,3.466,9.762
					c1.629,2.766,3.609,5.162,6.085,7.141l-0.712-7.711l8.915-1.838c-1.131-0.916-2.121-1.977-2.9-3.189
					c-0.847-1.199-1.485-2.543-1.843-3.959L278.829,157.193z"/>
			</g>
		</g>
	</g>
</g>
<g>
	<g>
		<g>
			<defs>
				<rect id="SVGID_5_" x="278.964" y="129.949" width="23.347" height="18.967"/>
			</defs>
			<clipPath id="SVGID_6_">
				<use xlink:href="#SVGID_5_"  overflow="visible"/>
			</clipPath>
			<g clip-path="url(#SVGID_6_)">
				<path fill="#ACFBE9" d="M279.679,140.207c2.121-2.477,4.743-4.811,7.711-6.508c2.546-1.488,5.376-2.475,8.347-3.047l5.868,5.309
					l-4.383,7.213c-1.485,0.352-2.968,0.996-4.239,1.846c-1.348,0.842-2.476,1.904-3.398,3.176l-2.549-8.695L279.679,140.207z"/>
			</g>
		</g>
	</g>
</g>
<g>
	<g>
		<g>
			<defs>
				<rect id="SVGID_7_" x="310.385" y="135.961" width="19.093" height="23.494"/>
			</defs>
			<clipPath id="SVGID_8_">
				<use xlink:href="#SVGID_7_"  overflow="visible"/>
			</clipPath>
			<g clip-path="url(#SVGID_8_)">
				<path fill="#124E9F" d="M311.085,146.219c1.058,0.992,1.983,2.127,2.76,3.404c0.773,1.197,1.412,2.475,1.843,3.82l7.919,5.297
					l5.162-5.371c-0.565-3.113-1.696-6.088-3.255-8.918c-1.629-2.971-3.536-5.59-6.152-7.783v7.637L311.085,146.219z"/>
			</g>
		</g>
	</g>
</g>
<g>
	<g>
		<g>
			<defs>
				<rect id="SVGID_9_" x="313.212" y="154.844" width="16.553" height="20.311"/>
			</defs>
			<clipPath id="SVGID_10_">
				<use xlink:href="#SVGID_9_"  overflow="visible"/>
			</clipPath>
			<g clip-path="url(#SVGID_10_)">
				<path fill="#1EAEEB" d="M316.394,155.699l7.424,4.951l5.162-5.092c0.281,3.258-0.07,6.586-0.917,9.697
					c-0.779,2.967-2.127,5.801-3.823,8.35l-7.919,0.844l-2.408-8.197c1.204-1.846,1.983-3.896,2.335-6.018
					C316.537,158.672,316.537,157.193,316.394,155.699z"/>
			</g>
		</g>
	</g>
</g>
<g>
	<g>
		<g>
			<defs>
				<rect id="SVGID_11_" x="300.049" y="167.092" width="23.49" height="18.748"/>
			</defs>
			<clipPath id="SVGID_12_">
				<use xlink:href="#SVGID_11_"  overflow="visible"/>
			</clipPath>
			<g clip-path="url(#SVGID_12_)">
				<path fill="#ACFBE9" d="M312.854,167.799l2.549,8.484l7.424-0.713c-1.764,2.133-3.814,3.756-6.082,5.248
					c-2.971,2.047-6.299,3.535-9.832,4.309l-6.158-5.162l4.529-7.43c1.485-0.418,2.833-1.062,4.104-1.842
					C310.66,169.852,311.864,168.93,312.854,167.799z"/>
			</g>
		</g>
	</g>
</g>
<text transform="matrix(1 0 0 1 333.6543 172.751)" fill="#476F8A" font-family="'AdventPro-Bold'" font-size="41.0315">R</text>
<text transform="matrix(1 0 0 1 356.79 172.751)" fill="#476F8A" font-family="'AdventPro-Bold'" font-size="41.0315">e</text>
<text transform="matrix(1 0 0 1 374.5469 172.751)" fill="#476F8A" font-family="'AdventPro-Bold'" font-size="41.0315">s</text>
<text transform="matrix(1 0 0 1 392.2334 172.751)" fill="#476F8A" font-family="'AdventPro-Bold'" font-size="41.0315">p</text>
<text transform="matrix(1 0 0 1 412.4629 172.751)" fill="#476F8A" font-family="'AdventPro-Bold'" font-size="41.0315">e</text>
<text transform="matrix(1 0 0 1 430.2227 172.751)" fill="#476F8A" font-family="'AdventPro-Bold'" font-size="41.0315">c</text>
<text transform="matrix(1 0 0 1 445.9961 172.751)" fill="#476F8A" font-family="'AdventPro-Bold'" font-size="41.0315">t</text>
<text transform="matrix(1 0 0 1 456.751 172.751)" fill="#476F8A" font-family="'AdventPro-Bold'" font-size="41.0315">.</text>
<text transform="matrix(1 0 0 1 462.2676 172.751)" fill="#476F8A" font-family="'AdventPro-Bold'" font-size="41.0315">l</text>
<text transform="matrix(1 0 0 1 470.0488 172.751)" fill="#476F8A" font-family="'AdventPro-Bold'" font-size="41.0315">y</text>
<g>
	<g>
		<g>
			<defs>
				<rect id="SVGID_13_" y="10.752" width="16.55" height="20.238"/>
			</defs>
			<clipPath id="SVGID_14_">
				<use xlink:href="#SVGID_13_"  overflow="visible"/>
			</clipPath>
			<g clip-path="url(#SVGID_14_)">
				<path fill="#1EAEEB" d="M5.52,12.383l7.928-0.922l2.402,8.275c-0.923,1.486-1.553,3.035-1.978,4.744
					c-0.498,1.912-0.639,3.811-0.498,5.801L5.81,25.256l-5.027,5.025C0.568,26.883,0.929,23.41,1.84,20.168
					C2.687,17.396,3.891,14.785,5.52,12.383z"/>
			</g>
		</g>
	</g>
</g>
<g>
	<g>
		<g>
			<defs>
				<rect id="SVGID_15_" x="0.425" y="26.527" width="19.104" height="23.35"/>
			</defs>
			<clipPath id="SVGID_16_">
				<use xlink:href="#SVGID_15_"  overflow="visible"/>
			</clipPath>
			<g clip-path="url(#SVGID_16_)">
				<path fill="#124E9F" d="M6.226,27.234l-5.095,5.094c0.501,3.467,1.635,6.715,3.398,9.766c1.629,2.691,3.756,5.094,6.231,7.072
					l-0.712-7.639l8.774-1.91c-1.137-0.85-2.127-1.912-2.9-3.111c-0.855-1.203-1.488-2.551-1.846-4.027L6.226,27.234z"/>
			</g>
		</g>
	</g>
</g>
<g>
	<g>
		<g>
			<defs>
				<rect id="SVGID_17_" x="6.293" width="23.35" height="18.957"/>
			</defs>
			<clipPath id="SVGID_18_">
				<use xlink:href="#SVGID_17_"  overflow="visible"/>
			</clipPath>
			<g clip-path="url(#SVGID_18_)">
				<path fill="#ACFBE9" d="M7.005,10.186c2.121-2.475,4.737-4.736,7.708-6.439c2.622-1.488,5.449-2.549,8.35-3.047l5.874,5.309
					l-4.312,7.146c-1.562,0.424-2.979,1.062-4.321,1.906c-1.269,0.855-2.476,1.91-3.396,3.188l-2.54-8.062H7.005L7.005,10.186z"/>
			</g>
		</g>
	</g>
</g>
<g>
	<g>
		<g>
			<defs>
				<rect id="SVGID_19_" x="37.708" y="5.947" width="19.104" height="23.561"/>
			</defs>
			<clipPath id="SVGID_20_">
				<use xlink:href="#SVGID_19_"  overflow="visible"/>
			</clipPath>
			<g clip-path="url(#SVGID_20_)">
				<path fill="#124E9F" d="M38.414,16.271c1.069,0.986,2.057,2.121,2.833,3.398c0.712,1.207,1.345,2.475,1.77,3.814l7.922,5.305
					l5.165-5.379c-0.565-3.113-1.629-6.152-3.188-8.914c-1.699-2.969-4.175-5.588-6.791-7.85l0.706,7.639L38.414,16.271z"/>
			</g>
		</g>
	</g>
</g>
<g>
	<g>
		<g>
			<defs>
				<rect id="SVGID_21_" x="40.541" y="24.904" width="16.553" height="20.307"/>
			</defs>
			<clipPath id="SVGID_22_">
				<use xlink:href="#SVGID_21_"  overflow="visible"/>
			</clipPath>
			<g clip-path="url(#SVGID_22_)">
				<path fill="#1EAEEB" d="M43.717,25.672l7.427,5.033l5.162-5.092c0.281,3.25,0,6.504-0.92,9.689
					c-0.776,2.977-2.054,5.801-3.817,8.285l-7.922,0.92l-2.408-8.209c1.204-1.838,1.98-3.896,2.408-6.082
					C43.863,28.729,43.863,27.234,43.717,25.672z"/>
			</g>
		</g>
	</g>
</g>
<g>
	<g>
		<g>
			<defs>
				<rect id="SVGID_23_" x="27.384" y="37.139" width="23.487" height="18.68"/>
			</defs>
			<clipPath id="SVGID_24_">
				<use xlink:href="#SVGID_23_"  overflow="visible"/>
			</clipPath>
			<g clip-path="url(#SVGID_24_)">
				<path fill="#ACFBE9" d="M40.184,37.846l2.549,8.42l7.424-0.709c-1.764,2.121-3.747,3.811-6.012,5.303
					c-3.047,2.059-6.366,3.469-9.902,4.242l-6.158-5.096l4.535-7.496c1.479-0.426,2.827-0.99,4.099-1.846
					C37.989,39.893,39.193,38.914,40.184,37.846z"/>
			</g>
		</g>
	</g>
</g>
<text transform="matrix(1 0 0 1 60.9863 42.8037)" fill="#13DF6D" font-family="'AdventPro-Bold'" font-size="41.0315">R</text>
<text transform="matrix(1 0 0 1 84.1162 42.8037)" fill="#13DF6D" font-family="'AdventPro-Bold'" font-size="41.0315">e</text>
<text transform="matrix(1 0 0 1 101.9463 42.8037)" fill="#13DF6D" font-family="'AdventPro-Bold'" font-size="41.0315">s</text>
<text transform="matrix(1 0 0 1 119.6299 42.8037)" fill="#13DF6D" font-family="'AdventPro-Bold'" font-size="41.0315">p</text>
<text transform="matrix(1 0 0 1 139.7949 42.8037)" fill="#13DF6D" font-family="'AdventPro-Bold'" font-size="41.0315">e</text>
<text transform="matrix(1 0 0 1 157.6191 42.8037)" fill="#13DF6D" font-family="'AdventPro-Bold'" font-size="41.0315">c</text>
<text transform="matrix(1 0 0 1 173.3223 42.8037)" fill="#13DF6D" font-family="'AdventPro-Bold'" font-size="41.0315">t</text>
<text transform="matrix(1 0 0 1 184.0771 42.8037)" fill="#13DF6D" font-family="'AdventPro-Bold'" font-size="41.0315">.</text>
<text transform="matrix(1 0 0 1 189.667 42.8037)" fill="#13DF6D" font-family="'AdventPro-Bold'" font-size="41.0315">l</text>
<text transform="matrix(1 0 0 1 197.3809 42.8037)" fill="#13DF6D" font-family="'AdventPro-Bold'" font-size="41.0315">y</text>
<g>
	<g>
		<g>
			<defs>
				<rect id="SVGID_25_" x="30.69" y="132.24" width="16.55" height="20.236"/>
			</defs>
			<clipPath id="SVGID_26_">
				<use xlink:href="#SVGID_25_"  overflow="visible"/>
			</clipPath>
			<g clip-path="url(#SVGID_26_)">
				<path fill="#1EAEEB" d="M36.137,133.873l7.998-0.924l2.402,8.359c-0.92,1.412-1.626,2.967-2.051,4.664
					c-0.498,1.91-0.639,3.887-0.425,5.801l-7.57-5.027l-5.027,5.027c-0.281-3.398,0.076-6.865,1.063-10.117
					C33.31,138.896,34.575,136.281,36.137,133.873z"/>
			</g>
		</g>
	</g>
</g>
<g>
	<g>
		<g>
			<defs>
				<rect id="SVGID_27_" x="31.048" y="148.023" width="19.172" height="23.346"/>
			</defs>
			<clipPath id="SVGID_28_">
				<use xlink:href="#SVGID_27_"  overflow="visible"/>
			</clipPath>
			<g clip-path="url(#SVGID_28_)">
				<path fill="#124E9F" d="M36.849,148.732l-5.095,5.092c0.492,3.465,1.696,6.715,3.472,9.77c1.623,2.688,3.674,5.09,6.146,7.076
					l-0.706-7.641l8.842-1.91c-1.134-0.854-2.121-1.92-2.971-3.115c-0.773-1.207-1.412-2.551-1.77-4.031L36.849,148.732z"/>
			</g>
		</g>
	</g>
</g>
<g>
	<g>
		<g>
			<defs>
				<rect id="SVGID_29_" x="36.992" y="121.498" width="23.341" height="18.961"/>
			</defs>
			<clipPath id="SVGID_30_">
				<use xlink:href="#SVGID_29_"  overflow="visible"/>
			</clipPath>
			<g clip-path="url(#SVGID_30_)">
				<path fill="#ACFBE9" d="M37.689,131.824c2.06-2.615,4.67-4.877,7.714-6.574c2.555-1.488,5.376-2.551,8.355-3.047l5.871,5.309
					l-4.383,7.141c-1.488,0.424-2.968,1.068-4.245,1.91c-1.345,0.857-2.476,1.912-3.472,3.189l-2.473-8.633L37.689,131.824z"/>
			</g>
		</g>
	</g>
</g>
<g>
	<g>
		<g>
			<defs>
				<rect id="SVGID_31_" x="68.401" y="127.439" width="19.099" height="23.557"/>
			</defs>
			<clipPath id="SVGID_32_">
				<use xlink:href="#SVGID_31_"  overflow="visible"/>
			</clipPath>
			<g clip-path="url(#SVGID_32_)">
				<path fill="#124E9F" d="M69.102,137.77c1.063,0.98,1.98,2.117,2.76,3.398c0.779,1.203,1.345,2.469,1.77,3.814l7.922,5.309
					l5.241-5.383c-0.565-3.111-1.696-6.158-3.258-8.918c-1.696-2.967-4.172-5.586-6.794-7.852l0.712,7.639L69.102,137.77z"/>
			</g>
		</g>
	</g>
</g>
<g>
	<g>
		<g>
			<defs>
				<rect id="SVGID_33_" x="71.229" y="146.389" width="16.556" height="20.309"/>
			</defs>
			<clipPath id="SVGID_34_">
				<use xlink:href="#SVGID_33_"  overflow="visible"/>
			</clipPath>
			<g clip-path="url(#SVGID_34_)">
				<path fill="#1EAEEB" d="M74.337,147.244l7.503,4.959l5.089-5.094c0.284,3.248,0,6.5-0.85,9.688
					c-0.847,2.977-2.118,5.801-3.814,8.273L74.27,166l-2.332-8.207c1.204-1.836,1.978-3.887,2.332-6.088
					C74.548,150.211,74.548,148.732,74.337,147.244z"/>
			</g>
		</g>
	</g>
</g>
<g>
	<g>
		<g>
			<defs>
				<rect id="SVGID_35_" x="58.068" y="158.643" width="23.411" height="18.668"/>
			</defs>
			<clipPath id="SVGID_36_">
				<use xlink:href="#SVGID_35_"  overflow="visible"/>
			</clipPath>
			<g clip-path="url(#SVGID_36_)">
				<path fill="#ACFBE9" d="M70.874,159.344l2.549,8.561l7.356-0.709c-1.702,2.121-3.75,3.676-6.018,5.162
					c-2.968,2.053-6.36,3.471-9.896,4.238l-6.085-5.088l4.529-7.5c1.418-0.426,2.827-0.984,4.104-1.838
					C68.68,161.395,69.811,160.404,70.874,159.344z"/>
			</g>
		</g>
	</g>
</g>
<text transform="matrix(1 0 0 1 91.6006 164.2998)" fill="#EAF6F7" font-family="'AdventPro-Bold'" font-size="41.0315">R</text>
<text transform="matrix(1 0 0 1 114.7363 164.2998)" fill="#EAF6F7" font-family="'AdventPro-Bold'" font-size="41.0315">e</text>
<text transform="matrix(1 0 0 1 132.5635 164.2998)" fill="#EAF6F7" font-family="'AdventPro-Bold'" font-size="41.0315">s</text>
<text transform="matrix(1 0 0 1 150.25 164.2998)" fill="#EAF6F7" font-family="'AdventPro-Bold'" font-size="41.0315">p</text>
<text transform="matrix(1 0 0 1 170.4824 164.2998)" fill="#EAF6F7" font-family="'AdventPro-Bold'" font-size="41.0315">e</text>
<text transform="matrix(1 0 0 1 188.2393 164.2998)" fill="#EAF6F7" font-family="'AdventPro-Bold'" font-size="41.0315">c</text>
<text transform="matrix(1 0 0 1 203.9424 164.2998)" fill="#EAF6F7" font-family="'AdventPro-Bold'" font-size="41.0315">t</text>
<text transform="matrix(1 0 0 1 214.7705 164.2998)" fill="#EAF6F7" font-family="'AdventPro-Bold'" font-size="41.0315">.</text>
<text transform="matrix(1 0 0 1 220.2842 164.2998)" fill="#EAF6F7" font-family="'AdventPro-Bold'" font-size="41.0315">l</text>
<text transform="matrix(1 0 0 1 228.0684 164.2998)" fill="#EAF6F7" font-family="'AdventPro-Bold'" font-size="41.0315">y</text>
<g>
	<g>
		<g>
			<defs>
				<rect id="SVGID_37_" x="32.103" y="211.41" width="16.556" height="20.234"/>
			</defs>
			<clipPath id="SVGID_38_">
				<use xlink:href="#SVGID_37_"  overflow="visible"/>
			</clipPath>
			<g clip-path="url(#SVGID_38_)">
				<path fill="#EAF6F7" d="M37.622,213.045l7.922-0.93l2.402,8.354c-0.917,1.408-1.55,2.971-2.048,4.666
					c-0.425,1.908-0.639,3.891-0.425,5.801l-7.567-5.023l-5.021,5.023c-0.284-3.398,0.135-6.863,1.055-10.119
					C34.789,218.051,35.999,215.447,37.622,213.045z"/>
			</g>
		</g>
	</g>
</g>
<g>
	<g>
		<g>
			<defs>
				<rect id="SVGID_39_" x="32.46" y="227.189" width="19.172" height="23.416"/>
			</defs>
			<clipPath id="SVGID_40_">
				<use xlink:href="#SVGID_39_"  overflow="visible"/>
			</clipPath>
			<g clip-path="url(#SVGID_40_)">
				<path fill="#EAF6F7" d="M38.261,227.895l-5.092,5.09c0.495,3.471,1.696,6.797,3.466,9.77c1.626,2.688,3.674,5.09,6.149,7.141
					l-0.706-7.721l8.842-1.836c-1.137-0.92-2.121-1.979-2.9-3.182c-0.847-1.207-1.482-2.547-1.843-4.031L38.261,227.895z"/>
			</g>
		</g>
	</g>
</g>
<g>
	<g>
		<g>
			<defs>
				<rect id="SVGID_41_" x="38.401" y="200.654" width="23.341" height="18.959"/>
			</defs>
			<clipPath id="SVGID_42_">
				<use xlink:href="#SVGID_41_"  overflow="visible"/>
			</clipPath>
			<g clip-path="url(#SVGID_42_)">
				<path fill="#EAF6F7" d="M39.11,211.053c2.118-2.688,4.737-4.949,7.711-6.65c2.616-1.488,5.446-2.549,8.347-3.047l5.874,5.309
					l-4.315,7.145c-1.559,0.426-2.979,1.064-4.318,1.914c-1.271,0.852-2.473,1.916-3.398,3.182l-2.546-8.559L39.11,211.053z"/>
			</g>
		</g>
	</g>
</g>
<g>
	<g>
		<g>
			<defs>
				<rect id="SVGID_43_" x="69.811" y="206.602" width="19.104" height="23.555"/>
			</defs>
			<clipPath id="SVGID_44_">
				<use xlink:href="#SVGID_43_"  overflow="visible"/>
			</clipPath>
			<g clip-path="url(#SVGID_44_)">
				<path fill="#EAF6F7" d="M70.522,216.926c1.058,0.99,2.054,2.133,2.833,3.398c0.706,1.207,1.339,2.477,1.764,3.818l7.928,5.305
					l5.162-5.375c-0.565-3.121-1.702-6.156-3.258-8.922c-1.623-2.967-4.172-5.586-6.791-7.848l0.706,7.713L70.522,216.926z"/>
			</g>
		</g>
	</g>
</g>
<g>
	<g>
		<g>
			<defs>
				<rect id="SVGID_45_" x="72.641" y="225.561" width="16.55" height="20.309"/>
			</defs>
			<clipPath id="SVGID_46_">
				<use xlink:href="#SVGID_45_"  overflow="visible"/>
			</clipPath>
			<g clip-path="url(#SVGID_46_)">
				<path fill="#EAF6F7" d="M75.825,226.41l7.424,4.951l5.165-5.092c0.278,3.254,0,6.574-0.926,9.688
					c-0.776,2.977-2.121,5.801-3.817,8.354l-7.928,0.852l-2.402-8.209c1.198-1.836,1.978-3.887,2.335-6.082
					C75.966,229.383,75.966,227.895,75.825,226.41z"/>
			</g>
		</g>
	</g>
</g>
<g>
	<g>
		<g>
			<defs>
				<rect id="SVGID_47_" x="59.48" y="237.803" width="23.49" height="18.672"/>
			</defs>
			<clipPath id="SVGID_48_">
				<use xlink:href="#SVGID_47_"  overflow="visible"/>
			</clipPath>
			<g clip-path="url(#SVGID_48_)">
				<path fill="#EAF6F7" d="M72.286,238.5l2.552,7.922h7.427c-1.77,2.133-3.823,3.613-6.015,5.096
					c-3.044,2.057-6.372,3.465-9.905,4.238l-6.152-5.082l4.529-7.436c1.482-0.492,2.821-1.064,4.104-1.904
					C70.098,240.551,71.296,239.57,72.286,238.5z"/>
			</g>
		</g>
	</g>
</g>
<text transform="matrix(1 0 0 1 93.0889 243.4658)" fill="#EAF6F7" font-family="'AdventPro-Bold'" font-size="41.0315">R</text>
<text transform="matrix(1 0 0 1 116.2217 243.4658)" fill="#EAF6F7" font-family="'AdventPro-Bold'" font-size="41.0315">e</text>
<text transform="matrix(1 0 0 1 134.0488 243.4658)" fill="#EAF6F7" font-family="'AdventPro-Bold'" font-size="41.0315">s</text>
<text transform="matrix(1 0 0 1 151.665 243.4658)" fill="#EAF6F7" font-family="'AdventPro-Bold'" font-size="41.0315">p</text>
<text transform="matrix(1 0 0 1 171.8975 243.4658)" fill="#EAF6F7" font-family="'AdventPro-Bold'" font-size="41.0315">e</text>
<text transform="matrix(1 0 0 1 189.7217 243.4658)" fill="#EAF6F7" font-family="'AdventPro-Bold'" font-size="41.0315">c</text>
<text transform="matrix(1 0 0 1 205.4277 243.4658)" fill="#EAF6F7" font-family="'AdventPro-Bold'" font-size="41.0315">t</text>
<text transform="matrix(1 0 0 1 216.1826 243.4658)" fill="#EAF6F7" font-family="'AdventPro-Bold'" font-size="41.0315">.</text>
<text transform="matrix(1 0 0 1 221.7725 243.4658)" fill="#EAF6F7" font-family="'AdventPro-Bold'" font-size="41.0315">l</text>
<text transform="matrix(1 0 0 1 229.4834 243.4658)" fill="#EAF6F7" font-family="'AdventPro-Bold'" font-size="41.0315">y</text>
<g>
	<g>
		<g>
			<defs>
				<rect id="SVGID_49_" x="30.69" y="290.641" width="16.55" height="20.234"/>
			</defs>
			<clipPath id="SVGID_50_">
				<use xlink:href="#SVGID_49_"  overflow="visible"/>
			</clipPath>
			<g clip-path="url(#SVGID_50_)">
				<path fill="#FEFFFE" d="M36.137,292.275l7.998-0.926l2.402,8.275c-0.92,1.494-1.626,3.041-2.051,4.738
					c-0.498,1.848-0.639,3.822-0.425,5.807l-7.57-5.021l-5.027,4.947c-0.281-3.398,0.076-6.785,1.063-10.045
					C33.31,297.291,34.575,294.678,36.137,292.275z"/>
			</g>
		</g>
	</g>
</g>
<g>
	<g>
		<g>
			<defs>
				<rect id="SVGID_51_" x="31.048" y="306.35" width="19.172" height="23.416"/>
			</defs>
			<clipPath id="SVGID_52_">
				<use xlink:href="#SVGID_51_"  overflow="visible"/>
			</clipPath>
			<g clip-path="url(#SVGID_52_)">
				<path fill="#FEFFFE" d="M36.849,307.055l-5.095,5.168c0.492,3.398,1.696,6.715,3.472,9.689c1.623,2.768,3.674,5.162,6.146,7.143
					l-0.706-7.709l8.842-1.848c-1.134-0.85-2.121-1.904-2.971-3.104c-0.773-1.207-1.412-2.619-1.77-4.037L36.849,307.055z"/>
			</g>
		</g>
	</g>
</g>
<g>
	<g>
		<g>
			<defs>
				<rect id="SVGID_53_" x="36.992" y="279.9" width="23.341" height="18.879"/>
			</defs>
			<clipPath id="SVGID_54_">
				<use xlink:href="#SVGID_53_"  overflow="visible"/>
			</clipPath>
			<g clip-path="url(#SVGID_54_)">
				<path fill="#FEFFFE" d="M37.689,290.285c2.06-2.686,4.67-4.947,7.714-6.645c2.555-1.49,5.376-2.555,8.355-3.047l5.871,5.301
					l-4.383,7.148c-1.488,0.43-2.968,1.068-4.245,1.91c-1.345,0.85-2.476,1.912-3.472,3.111l-2.473-8.488L37.689,290.285z"/>
			</g>
		</g>
	</g>
</g>
<g>
	<g>
		<g>
			<defs>
				<rect id="SVGID_55_" x="68.401" y="285.83" width="19.099" height="23.566"/>
			</defs>
			<clipPath id="SVGID_56_">
				<use xlink:href="#SVGID_55_"  overflow="visible"/>
			</clipPath>
			<g clip-path="url(#SVGID_56_)">
				<path fill="#FEFFFE" d="M69.102,296.16c1.063,0.99,1.98,2.127,2.76,3.324c0.779,1.205,1.345,2.555,1.77,3.895l7.922,5.303
					l5.241-5.371c-0.565-3.113-1.696-6.16-3.258-8.92c-1.696-2.977-4.172-5.666-6.794-7.861l0.712,7.65L69.102,296.16z"/>
			</g>
		</g>
	</g>
</g>
<g>
	<g>
		<g>
			<defs>
				<rect id="SVGID_57_" x="71.229" y="304.721" width="16.556" height="20.303"/>
			</defs>
			<clipPath id="SVGID_58_">
				<use xlink:href="#SVGID_57_"  overflow="visible"/>
			</clipPath>
			<g clip-path="url(#SVGID_58_)">
				<path fill="#FEFFFE" d="M74.337,305.572l7.503,5.016l5.089-5.162c0.284,3.332,0,6.58-0.85,9.771
					c-0.847,2.967-2.118,5.721-3.814,8.275l-7.995,0.85l-2.332-8.211c1.204-1.768,1.978-3.814,2.332-6.016
					C74.548,308.613,74.548,307.055,74.337,305.572z"/>
			</g>
		</g>
	</g>
</g>
<g>
	<g>
		<g>
			<defs>
				<rect id="SVGID_59_" x="58.068" y="317.033" width="23.411" height="18.674"/>
			</defs>
			<clipPath id="SVGID_60_">
				<use xlink:href="#SVGID_59_"  overflow="visible"/>
			</clipPath>
			<g clip-path="url(#SVGID_60_)">
				<path fill="#FEFFFE" d="M70.874,317.734l2.549,7.934h7.356c-1.702,2.115-3.75,3.527-6.018,5.086
					c-2.968,2.053-6.36,3.465-9.896,4.242l-6.085-5.162l4.529-7.436c1.418-0.416,2.827-1.053,4.104-1.838
					C68.691,319.787,69.811,318.797,70.874,317.734z"/>
			</g>
		</g>
	</g>
</g>
<text transform="matrix(1 0 0 1 91.6006 322.626)" fill="#FEFFFE" font-family="'AdventPro-Bold'" font-size="41.0315">R</text>
<text transform="matrix(1 0 0 1 114.7363 322.626)" fill="#FEFFFE" font-family="'AdventPro-Bold'" font-size="41.0315">e</text>
<text transform="matrix(1 0 0 1 132.5635 322.626)" fill="#FEFFFE" font-family="'AdventPro-Bold'" font-size="41.0315">s</text>
<text transform="matrix(1 0 0 1 150.25 322.626)" fill="#FEFFFE" font-family="'AdventPro-Bold'" font-size="41.0315">p</text>
<text transform="matrix(1 0 0 1 170.4824 322.626)" fill="#FEFFFE" font-family="'AdventPro-Bold'" font-size="41.0315">e</text>
<text transform="matrix(1 0 0 1 188.2393 322.626)" fill="#FEFFFE" font-family="'AdventPro-Bold'" font-size="41.0315">c</text>
<text transform="matrix(1 0 0 1 203.9424 322.626)" fill="#FEFFFE" font-family="'AdventPro-Bold'" font-size="41.0315">t</text>
<text transform="matrix(1 0 0 1 214.7705 322.626)" fill="#FEFFFE" font-family="'AdventPro-Bold'" font-size="41.0315">.</text>
<text transform="matrix(1 0 0 1 220.2842 322.626)" fill="#FEFFFE" font-family="'AdventPro-Bold'" font-size="41.0315">l</text>
<text transform="matrix(1 0 0 1 228.0684 322.626)" fill="#FEFFFE" font-family="'AdventPro-Bold'" font-size="41.0315">y</text>
</svg>
