<?xml version="1.0" encoding="utf-8"?>
<!-- Generator: Adobe Illustrator 16.0.4, SVG Export Plug-In . SVG Version: 6.00 Build 0)  -->
<!DOCTYPE svg PUBLIC "-//W3C//DTD SVG 1.1//EN" "http://www.w3.org/Graphics/SVG/1.1/DTD/svg11.dtd">
<svg version="1.1" id="Layer_1" xmlns="http://www.w3.org/2000/svg" xmlns:xlink="http://www.w3.org/1999/xlink" x="0px" y="0px"
	 width="43.875px" height="11.291px" viewBox="437.75 257.392 43.875 11.291" enable-background="new 437.75 257.392 43.875 11.291"
	 xml:space="preserve">
<desc>SVG generated by Keynote</desc>
<g transform="matrix(1.00, 0.00, -0.00, -1.00, 0.0, 768.0)">
	<g>
		<g>
			<defs>
				<rect id="SVGID_1_" x="437.75" y="504.349" width="3.345" height="4.087"/>
			</defs>
			<clipPath id="SVGID_2_">
				<use xlink:href="#SVGID_1_"  overflow="visible"/>
			</clipPath>
			<g clip-path="url(#SVGID_2_)">
				<path fill="#1EAEEB" d="M438.851,508.107l1.615,0.186l0.485-1.686c-0.185-0.287-0.328-0.615-0.414-0.943
					c-0.1-0.387-0.128-0.787-0.085-1.173l-1.529,1.001l-1.015-1.001c-0.057,0.687,0.029,1.372,0.215,2.044
					C438.294,507.093,438.537,507.621,438.851,508.107z"/>
			</g>
		</g>
	</g>
	<g>
		<g>
			<defs>
				<rect id="SVGID_3_" x="437.822" y="500.518" width="3.873" height="4.731"/>
			</defs>
			<clipPath id="SVGID_4_">
				<use xlink:href="#SVGID_3_"  overflow="visible"/>
			</clipPath>
			<g clip-path="url(#SVGID_4_)">
				<path fill="#124E9F" d="M438.994,505.105l-1.029-1.029c0.1-0.699,0.343-1.371,0.7-1.972c0.329-0.558,0.729-1.043,1.229-1.442
					l-0.143,1.557l1.801,0.372c-0.229,0.186-0.429,0.399-0.586,0.644c-0.171,0.242-0.3,0.514-0.372,0.8L438.994,505.105z"/>
			</g>
		</g>
	</g>
	<g>
		<g>
			<defs>
				<rect id="SVGID_5_" x="439.022" y="506.777" width="4.716" height="3.831"/>
			</defs>
			<clipPath id="SVGID_6_">
				<use xlink:href="#SVGID_5_"  overflow="visible"/>
			</clipPath>
			<g clip-path="url(#SVGID_6_)">
				<path fill="#ACFBE9" d="M439.166,508.536c0.429,0.5,0.958,0.972,1.558,1.315c0.514,0.301,1.086,0.5,1.686,0.615l1.186-1.072
					l-0.886-1.458c-0.3-0.071-0.6-0.2-0.857-0.372c-0.272-0.171-0.5-0.386-0.686-0.642l-0.515,1.757L439.166,508.536z"/>
			</g>
		</g>
	</g>
	<g>
		<g>
			<defs>
				<rect id="SVGID_7_" x="445.369" y="504.648" width="3.858" height="4.745"/>
			</defs>
			<clipPath id="SVGID_8_">
				<use xlink:href="#SVGID_7_"  overflow="visible"/>
			</clipPath>
			<g clip-path="url(#SVGID_8_)">
				<path fill="#124E9F" d="M445.511,507.321c0.214-0.2,0.4-0.429,0.557-0.687c0.157-0.242,0.286-0.5,0.372-0.771l1.6-1.071
					l1.043,1.085c-0.114,0.629-0.343,1.23-0.657,1.802c-0.329,0.6-0.715,1.129-1.243,1.572v-1.543L445.511,507.321z"/>
			</g>
		</g>
	</g>
	<g>
		<g>
			<defs>
				<rect id="SVGID_9_" x="445.94" y="501.476" width="3.344" height="4.103"/>
			</defs>
			<clipPath id="SVGID_10_">
				<use xlink:href="#SVGID_9_"  overflow="visible"/>
			</clipPath>
			<g clip-path="url(#SVGID_10_)">
				<path fill="#1EAEEB" d="M446.583,505.406l1.5-1l1.043,1.028c0.057-0.657-0.015-1.329-0.186-1.958
					c-0.157-0.6-0.429-1.172-0.772-1.687l-1.6-0.171l-0.486,1.657c0.243,0.372,0.4,0.786,0.472,1.215
					C446.612,504.806,446.612,505.105,446.583,505.406z"/>
			</g>
		</g>
	</g>
	<g>
		<g>
			<defs>
				<rect id="SVGID_11_" x="443.281" y="499.317" width="4.745" height="3.788"/>
			</defs>
			<clipPath id="SVGID_12_">
				<use xlink:href="#SVGID_11_"  overflow="visible"/>
			</clipPath>
			<g clip-path="url(#SVGID_12_)">
				<path fill="#ACFBE9" d="M445.868,502.962l0.515-1.714l1.5,0.143c-0.357-0.43-0.771-0.758-1.229-1.059
					c-0.6-0.414-1.272-0.715-1.986-0.871l-1.244,1.043l0.915,1.501c0.3,0.085,0.572,0.214,0.829,0.372
					C445.425,502.547,445.668,502.733,445.868,502.962z"/>
			</g>
		</g>
	</g>
	<text transform="matrix(1 0 0 -1 450.0703 501.9609)" fill="#476F8A" font-family="'AdventPro-Bold'" font-size="8.2892">R</text>
	<text transform="matrix(1 0 0 -1 454.7441 501.9609)" fill="#476F8A" font-family="'AdventPro-Bold'" font-size="8.2892">e</text>
	<text transform="matrix(1 0 0 -1 458.3315 501.9609)" fill="#476F8A" font-family="'AdventPro-Bold'" font-size="8.2892">s</text>
	<text transform="matrix(1 0 0 -1 461.9043 501.9609)" fill="#476F8A" font-family="'AdventPro-Bold'" font-size="8.2892">p</text>
	<text transform="matrix(1 0 0 -1 465.9912 501.9609)" fill="#476F8A" font-family="'AdventPro-Bold'" font-size="8.2892">e</text>
	<text transform="matrix(1 0 0 -1 469.5791 501.9609)" fill="#476F8A" font-family="'AdventPro-Bold'" font-size="8.2892">c</text>
	<text transform="matrix(1 0 0 -1 472.7656 501.9609)" fill="#476F8A" font-family="'AdventPro-Bold'" font-size="8.2892">t</text>
	<text transform="matrix(1 0 0 -1 474.9385 501.9609)" fill="#476F8A" font-family="'AdventPro-Bold'" font-size="8.2892">.</text>
	<text transform="matrix(1 0 0 -1 476.0527 501.9609)" fill="#476F8A" font-family="'AdventPro-Bold'" font-size="8.2892">l</text>
	<text transform="matrix(1 0 0 -1 477.625 501.9609)" fill="#476F8A" font-family="'AdventPro-Bold'" font-size="8.2892">y</text>
	<g>
		<g>
			<defs>
				<rect id="SVGID_13_" x="388.422" y="529.609" width="3.344" height="4.088"/>
			</defs>
			<clipPath id="SVGID_14_">
				<use xlink:href="#SVGID_13_"  overflow="visible"/>
			</clipPath>
			<g clip-path="url(#SVGID_14_)">
				<path fill="#1EAEEB" d="M389.537,533.367l1.601,0.187l0.486-1.672c-0.186-0.3-0.314-0.614-0.4-0.958
					c-0.1-0.387-0.128-0.771-0.1-1.172l-1.529,1.015l-1.015-1.015c-0.043,0.686,0.029,1.387,0.214,2.043
					C388.965,532.354,389.208,532.882,389.537,533.367z"/>
			</g>
		</g>
	</g>
	<g>
		<g>
			<defs>
				<rect id="SVGID_15_" x="388.508" y="525.793" width="3.859" height="4.717"/>
			</defs>
			<clipPath id="SVGID_16_">
				<use xlink:href="#SVGID_15_"  overflow="visible"/>
			</clipPath>
			<g clip-path="url(#SVGID_16_)">
				<path fill="#124E9F" d="M389.68,530.367l-1.029-1.029c0.101-0.701,0.329-1.357,0.686-1.973c0.329-0.543,0.758-1.029,1.258-1.429
					l-0.143,1.543l1.772,0.386c-0.229,0.172-0.429,0.387-0.586,0.629c-0.172,0.243-0.3,0.516-0.372,0.814L389.68,530.367z"/>
			</g>
		</g>
	</g>
	<g>
		<g>
			<defs>
				<rect id="SVGID_17_" x="389.694" y="532.039" width="4.716" height="3.83"/>
			</defs>
			<clipPath id="SVGID_18_">
				<use xlink:href="#SVGID_17_"  overflow="visible"/>
			</clipPath>
			<g clip-path="url(#SVGID_18_)">
				<path fill="#ACFBE9" d="M389.837,533.811c0.429,0.5,0.957,0.958,1.558,1.301c0.529,0.301,1.1,0.515,1.686,0.615l1.187-1.072
					l-0.872-1.443c-0.315-0.086-0.601-0.215-0.872-0.386c-0.257-0.172-0.5-0.386-0.686-0.644l-0.514,1.629H389.837z"/>
			</g>
		</g>
	</g>
	<g>
		<g>
			<defs>
				<rect id="SVGID_19_" x="396.04" y="529.908" width="3.859" height="4.76"/>
			</defs>
			<clipPath id="SVGID_20_">
				<use xlink:href="#SVGID_19_"  overflow="visible"/>
			</clipPath>
			<g clip-path="url(#SVGID_20_)">
				<path fill="#124E9F" d="M396.183,532.582c0.215-0.199,0.415-0.429,0.572-0.686c0.143-0.244,0.271-0.501,0.357-0.771l1.601-1.072
					l1.043,1.086c-0.114,0.629-0.329,1.244-0.644,1.801c-0.343,0.6-0.843,1.129-1.372,1.586l0.143-1.543L396.183,532.582z"/>
			</g>
		</g>
	</g>
	<g>
		<g>
			<defs>
				<rect id="SVGID_21_" x="396.612" y="526.736" width="3.344" height="4.102"/>
			</defs>
			<clipPath id="SVGID_22_">
				<use xlink:href="#SVGID_21_"  overflow="visible"/>
			</clipPath>
			<g clip-path="url(#SVGID_22_)">
				<path fill="#1EAEEB" d="M397.254,530.682l1.5-1.016l1.043,1.029c0.057-0.657,0-1.314-0.186-1.958
					c-0.157-0.601-0.415-1.172-0.771-1.673l-1.601-0.186l-0.486,1.658c0.243,0.371,0.4,0.787,0.486,1.229
					C397.283,530.066,397.283,530.367,397.254,530.682z"/>
			</g>
		</g>
	</g>
	<g>
		<g>
			<defs>
				<rect id="SVGID_23_" x="393.954" y="524.593" width="4.745" height="3.773"/>
			</defs>
			<clipPath id="SVGID_24_">
				<use xlink:href="#SVGID_23_"  overflow="visible"/>
			</clipPath>
			<g clip-path="url(#SVGID_24_)">
				<path fill="#ACFBE9" d="M396.54,528.223l0.515-1.7l1.5,0.143c-0.357-0.429-0.757-0.771-1.215-1.071
					c-0.615-0.416-1.286-0.701-2-0.858l-1.244,1.03l0.915,1.514c0.3,0.086,0.572,0.2,0.829,0.373
					C396.097,527.809,396.34,528.008,396.54,528.223z"/>
			</g>
		</g>
	</g>
	<text transform="matrix(1 0 0 -1 400.7427 527.2217)" fill="#13DF6D" font-family="'AdventPro-Bold'" font-size="8.2892">R</text>
	<text transform="matrix(1 0 0 -1 405.4155 527.2217)" fill="#13DF6D" font-family="'AdventPro-Bold'" font-size="8.2892">e</text>
	<text transform="matrix(1 0 0 -1 409.0176 527.2217)" fill="#13DF6D" font-family="'AdventPro-Bold'" font-size="8.2892">s</text>
	<text transform="matrix(1 0 0 -1 412.5898 527.2217)" fill="#13DF6D" font-family="'AdventPro-Bold'" font-size="8.2892">p</text>
	<text transform="matrix(1 0 0 -1 416.6636 527.2217)" fill="#13DF6D" font-family="'AdventPro-Bold'" font-size="8.2892">e</text>
	<text transform="matrix(1 0 0 -1 420.2646 527.2217)" fill="#13DF6D" font-family="'AdventPro-Bold'" font-size="8.2892">c</text>
	<text transform="matrix(1 0 0 -1 423.437 527.2217)" fill="#13DF6D" font-family="'AdventPro-Bold'" font-size="8.2892">t</text>
	<text transform="matrix(1 0 0 -1 425.6094 527.2217)" fill="#13DF6D" font-family="'AdventPro-Bold'" font-size="8.2892">.</text>
	<text transform="matrix(1 0 0 -1 426.7388 527.2217)" fill="#13DF6D" font-family="'AdventPro-Bold'" font-size="8.2892">l</text>
	<text transform="matrix(1 0 0 -1 428.2969 527.2217)" fill="#13DF6D" font-family="'AdventPro-Bold'" font-size="8.2892">y</text>
	<g>
		<g>
			<defs>
				<rect id="SVGID_25_" x="388.865" y="506.057" width="3.344" height="4.088"/>
			</defs>
			<clipPath id="SVGID_26_">
				<use xlink:href="#SVGID_25_"  overflow="visible"/>
			</clipPath>
			<g clip-path="url(#SVGID_26_)">
				<path fill="#1EAEEB" d="M389.966,509.815l1.615,0.187l0.486-1.688c-0.186-0.286-0.329-0.6-0.415-0.943
					c-0.1-0.386-0.129-0.785-0.086-1.172l-1.529,1.016l-1.015-1.016c-0.057,0.686,0.015,1.387,0.214,2.044
					C389.394,508.801,389.651,509.329,389.966,509.815z"/>
			</g>
		</g>
	</g>
	<g>
		<g>
			<defs>
				<rect id="SVGID_27_" x="388.937" y="502.24" width="3.873" height="4.717"/>
			</defs>
			<clipPath id="SVGID_28_">
				<use xlink:href="#SVGID_27_"  overflow="visible"/>
			</clipPath>
			<g clip-path="url(#SVGID_28_)">
				<path fill="#124E9F" d="M390.109,506.814l-1.029-1.029c0.1-0.7,0.343-1.357,0.701-1.973c0.329-0.543,0.743-1.029,1.243-1.43
					l-0.143,1.544l1.786,0.386c-0.229,0.172-0.429,0.387-0.6,0.629c-0.157,0.243-0.286,0.515-0.358,0.814L390.109,506.814z"/>
			</g>
		</g>
	</g>
	<g>
		<g>
			<defs>
				<rect id="SVGID_29_" x="390.138" y="508.486" width="4.716" height="3.83"/>
			</defs>
			<clipPath id="SVGID_30_">
				<use xlink:href="#SVGID_29_"  overflow="visible"/>
			</clipPath>
			<g clip-path="url(#SVGID_30_)">
				<path fill="#ACFBE9" d="M390.28,510.229c0.415,0.529,0.943,0.986,1.558,1.329c0.515,0.301,1.086,0.515,1.687,0.615l1.187-1.072
					l-0.886-1.443c-0.3-0.086-0.6-0.215-0.858-0.386c-0.271-0.173-0.5-0.386-0.7-0.644l-0.5,1.744L390.28,510.229z"/>
			</g>
		</g>
	</g>
	<g>
		<g>
			<defs>
				<rect id="SVGID_31_" x="396.483" y="506.356" width="3.859" height="4.759"/>
			</defs>
			<clipPath id="SVGID_32_">
				<use xlink:href="#SVGID_31_"  overflow="visible"/>
			</clipPath>
			<g clip-path="url(#SVGID_32_)">
				<path fill="#124E9F" d="M396.625,509.029c0.215-0.199,0.4-0.429,0.558-0.687c0.157-0.243,0.271-0.499,0.357-0.771l1.601-1.072
					l1.058,1.087c-0.114,0.629-0.343,1.244-0.658,1.801c-0.343,0.6-0.843,1.129-1.372,1.586l0.143-1.543L396.625,509.029z"/>
			</g>
		</g>
	</g>
	<g>
		<g>
			<defs>
				<rect id="SVGID_33_" x="397.055" y="503.184" width="3.344" height="4.103"/>
			</defs>
			<clipPath id="SVGID_34_">
				<use xlink:href="#SVGID_33_"  overflow="visible"/>
			</clipPath>
			<g clip-path="url(#SVGID_34_)">
				<path fill="#1EAEEB" d="M397.683,507.114l1.515-1.001l1.029,1.029c0.057-0.657,0-1.314-0.172-1.958
					c-0.171-0.601-0.428-1.171-0.771-1.672l-1.615-0.187l-0.471,1.658c0.243,0.372,0.4,0.786,0.471,1.23
					C397.726,506.514,397.726,506.814,397.683,507.114z"/>
			</g>
		</g>
	</g>
	<g>
		<g>
			<defs>
				<rect id="SVGID_35_" x="394.396" y="501.04" width="4.73" height="3.772"/>
			</defs>
			<clipPath id="SVGID_36_">
				<use xlink:href="#SVGID_35_"  overflow="visible"/>
			</clipPath>
			<g clip-path="url(#SVGID_36_)">
				<path fill="#ACFBE9" d="M396.983,504.67l0.515-1.729l1.486,0.143c-0.343-0.429-0.757-0.743-1.215-1.043
					c-0.6-0.415-1.286-0.701-2-0.857l-1.229,1.029l0.915,1.514c0.286,0.086,0.571,0.2,0.829,0.372
					C396.54,504.256,396.769,504.456,396.983,504.67z"/>
			</g>
		</g>
	</g>
	<text transform="matrix(1 0 0 -1 401.1709 503.6689)" fill="#EAF6F7" font-family="'AdventPro-Bold'" font-size="8.2892">R</text>
	<text transform="matrix(1 0 0 -1 405.8442 503.6689)" fill="#EAF6F7" font-family="'AdventPro-Bold'" font-size="8.2892">e</text>
	<text transform="matrix(1 0 0 -1 409.4458 503.6689)" fill="#EAF6F7" font-family="'AdventPro-Bold'" font-size="8.2892">s</text>
	<text transform="matrix(1 0 0 -1 413.019 503.6689)" fill="#EAF6F7" font-family="'AdventPro-Bold'" font-size="8.2892">p</text>
	<text transform="matrix(1 0 0 -1 417.1064 503.6689)" fill="#EAF6F7" font-family="'AdventPro-Bold'" font-size="8.2892">e</text>
	<text transform="matrix(1 0 0 -1 420.6934 503.6689)" fill="#EAF6F7" font-family="'AdventPro-Bold'" font-size="8.2892">c</text>
	<text transform="matrix(1 0 0 -1 423.8662 503.6689)" fill="#EAF6F7" font-family="'AdventPro-Bold'" font-size="8.2892">t</text>
	<text transform="matrix(1 0 0 -1 426.0532 503.6689)" fill="#EAF6F7" font-family="'AdventPro-Bold'" font-size="8.2892">.</text>
	<text transform="matrix(1 0 0 -1 427.1675 503.6689)" fill="#EAF6F7" font-family="'AdventPro-Bold'" font-size="8.2892">l</text>
	<text transform="matrix(1 0 0 -1 428.7397 503.6689)" fill="#EAF6F7" font-family="'AdventPro-Bold'" font-size="8.2892">y</text>
	<g>
		<g>
			<defs>
				<rect id="SVGID_37_" x="389.151" y="490.064" width="3.344" height="4.087"/>
			</defs>
			<clipPath id="SVGID_38_">
				<use xlink:href="#SVGID_37_"  overflow="visible"/>
			</clipPath>
			<g clip-path="url(#SVGID_38_)">
				<path fill="#EAF6F7" d="M390.266,493.822l1.6,0.187l0.486-1.687c-0.186-0.285-0.314-0.6-0.415-0.943
					c-0.085-0.386-0.128-0.786-0.085-1.172l-1.529,1.015l-1.015-1.015c-0.057,0.687,0.028,1.387,0.214,2.044
					C389.694,492.809,389.938,493.336,390.266,493.822z"/>
			</g>
		</g>
	</g>
	<g>
		<g>
			<defs>
				<rect id="SVGID_39_" x="389.223" y="486.234" width="3.873" height="4.73"/>
			</defs>
			<clipPath id="SVGID_40_">
				<use xlink:href="#SVGID_39_"  overflow="visible"/>
			</clipPath>
			<g clip-path="url(#SVGID_40_)">
				<path fill="#EAF6F7" d="M390.395,490.822l-1.029-1.029c0.1-0.701,0.343-1.373,0.7-1.973c0.329-0.543,0.743-1.029,1.243-1.443
					l-0.143,1.559l1.786,0.371c-0.229,0.186-0.429,0.4-0.586,0.643c-0.171,0.244-0.3,0.515-0.372,0.814L390.395,490.822z"/>
			</g>
		</g>
	</g>
	<g>
		<g>
			<defs>
				<rect id="SVGID_41_" x="390.423" y="492.494" width="4.716" height="3.83"/>
			</defs>
			<clipPath id="SVGID_42_">
				<use xlink:href="#SVGID_41_"  overflow="visible"/>
			</clipPath>
			<g clip-path="url(#SVGID_42_)">
				<path fill="#EAF6F7" d="M390.566,494.223c0.428,0.543,0.957,1,1.558,1.344c0.528,0.301,1.101,0.515,1.686,0.615l1.187-1.072
					l-0.872-1.443c-0.315-0.086-0.601-0.215-0.872-0.387c-0.257-0.171-0.5-0.386-0.686-0.643l-0.515,1.729L390.566,494.223z"/>
			</g>
		</g>
	</g>
	<g>
		<g>
			<defs>
				<rect id="SVGID_43_" x="396.769" y="490.364" width="3.859" height="4.759"/>
			</defs>
			<clipPath id="SVGID_44_">
				<use xlink:href="#SVGID_43_"  overflow="visible"/>
			</clipPath>
			<g clip-path="url(#SVGID_44_)">
				<path fill="#EAF6F7" d="M396.912,493.037c0.214-0.2,0.415-0.43,0.572-0.686c0.143-0.244,0.271-0.501,0.357-0.772l1.601-1.071
					l1.043,1.086c-0.114,0.629-0.343,1.243-0.658,1.801c-0.328,0.6-0.843,1.129-1.372,1.586l0.143-1.558L396.912,493.037z"/>
			</g>
		</g>
	</g>
	<g>
		<g>
			<defs>
				<rect id="SVGID_45_" x="397.34" y="487.191" width="3.344" height="4.102"/>
			</defs>
			<clipPath id="SVGID_46_">
				<use xlink:href="#SVGID_45_"  overflow="visible"/>
			</clipPath>
			<g clip-path="url(#SVGID_46_)">
				<path fill="#EAF6F7" d="M397.983,491.121l1.5-1l1.043,1.029c0.057-0.658,0-1.328-0.186-1.957
					c-0.157-0.602-0.429-1.173-0.772-1.688l-1.601-0.172l-0.486,1.658c0.243,0.371,0.4,0.786,0.472,1.229
					C398.012,490.521,398.012,490.822,397.983,491.121z"/>
			</g>
		</g>
	</g>
	<g>
		<g>
			<defs>
				<rect id="SVGID_47_" x="394.682" y="485.048" width="4.745" height="3.772"/>
			</defs>
			<clipPath id="SVGID_48_">
				<use xlink:href="#SVGID_47_"  overflow="visible"/>
			</clipPath>
			<g clip-path="url(#SVGID_48_)">
				<path fill="#EAF6F7" d="M397.269,488.678l0.515-1.6h1.5c-0.357-0.43-0.772-0.73-1.215-1.029
					c-0.615-0.415-1.287-0.701-2.001-0.857l-1.243,1.028l0.915,1.501c0.3,0.1,0.571,0.215,0.829,0.386
					C396.826,488.264,397.068,488.463,397.269,488.678z"/>
			</g>
		</g>
	</g>
	<text transform="matrix(1 0 0 -1 401.4712 487.6758)" fill="#EAF6F7" font-family="'AdventPro-Bold'" font-size="8.2892">R</text>
	<text transform="matrix(1 0 0 -1 406.1445 487.6758)" fill="#EAF6F7" font-family="'AdventPro-Bold'" font-size="8.2892">e</text>
	<text transform="matrix(1 0 0 -1 409.7461 487.6758)" fill="#EAF6F7" font-family="'AdventPro-Bold'" font-size="8.2892">s</text>
	<text transform="matrix(1 0 0 -1 413.3047 487.6758)" fill="#EAF6F7" font-family="'AdventPro-Bold'" font-size="8.2892">p</text>
	<text transform="matrix(1 0 0 -1 417.3921 487.6758)" fill="#EAF6F7" font-family="'AdventPro-Bold'" font-size="8.2892">e</text>
	<text transform="matrix(1 0 0 -1 420.9932 487.6758)" fill="#EAF6F7" font-family="'AdventPro-Bold'" font-size="8.2892">c</text>
	<text transform="matrix(1 0 0 -1 424.166 487.6758)" fill="#EAF6F7" font-family="'AdventPro-Bold'" font-size="8.2892">t</text>
	<text transform="matrix(1 0 0 -1 426.3389 487.6758)" fill="#EAF6F7" font-family="'AdventPro-Bold'" font-size="8.2892">.</text>
	<text transform="matrix(1 0 0 -1 427.4678 487.6758)" fill="#EAF6F7" font-family="'AdventPro-Bold'" font-size="8.2892">l</text>
	<text transform="matrix(1 0 0 -1 429.0254 487.6758)" fill="#EAF6F7" font-family="'AdventPro-Bold'" font-size="8.2892">y</text>
	<g>
		<g>
			<defs>
				<rect id="SVGID_49_" x="388.865" y="474.057" width="3.344" height="4.088"/>
			</defs>
			<clipPath id="SVGID_50_">
				<use xlink:href="#SVGID_49_"  overflow="visible"/>
			</clipPath>
			<g clip-path="url(#SVGID_50_)">
				<path fill="#FEFFFE" d="M389.966,477.816l1.615,0.186l0.486-1.672c-0.186-0.301-0.329-0.614-0.415-0.957
					c-0.1-0.373-0.129-0.772-0.086-1.173l-1.529,1.015l-1.015-1c-0.057,0.686,0.015,1.371,0.214,2.029
					C389.394,476.802,389.651,477.33,389.966,477.816z"/>
			</g>
		</g>
	</g>
	<g>
		<g>
			<defs>
				<rect id="SVGID_51_" x="388.937" y="470.241" width="3.873" height="4.731"/>
			</defs>
			<clipPath id="SVGID_52_">
				<use xlink:href="#SVGID_51_"  overflow="visible"/>
			</clipPath>
			<g clip-path="url(#SVGID_52_)">
				<path fill="#FEFFFE" d="M390.109,474.829l-1.029-1.044c0.1-0.686,0.343-1.357,0.701-1.957c0.329-0.559,0.743-1.043,1.243-1.443
					l-0.143,1.558l1.786,0.372c-0.229,0.172-0.429,0.385-0.6,0.628c-0.157,0.243-0.286,0.528-0.358,0.815L390.109,474.829z"/>
			</g>
		</g>
	</g>
	<g>
		<g>
			<defs>
				<rect id="SVGID_53_" x="390.138" y="476.501" width="4.716" height="3.815"/>
			</defs>
			<clipPath id="SVGID_54_">
				<use xlink:href="#SVGID_53_"  overflow="visible"/>
			</clipPath>
			<g clip-path="url(#SVGID_54_)">
				<path fill="#FEFFFE" d="M390.28,478.217c0.415,0.543,0.943,1,1.558,1.343c0.515,0.301,1.086,0.515,1.687,0.615l1.187-1.071
					l-0.886-1.444c-0.3-0.087-0.6-0.215-0.858-0.386c-0.271-0.172-0.5-0.387-0.7-0.629l-0.5,1.715L390.28,478.217z"/>
			</g>
		</g>
	</g>
	<g>
		<g>
			<defs>
				<rect id="SVGID_55_" x="396.483" y="474.357" width="3.859" height="4.76"/>
			</defs>
			<clipPath id="SVGID_56_">
				<use xlink:href="#SVGID_55_"  overflow="visible"/>
			</clipPath>
			<g clip-path="url(#SVGID_56_)">
				<path fill="#FEFFFE" d="M396.625,477.03c0.215-0.2,0.4-0.429,0.558-0.671c0.157-0.244,0.271-0.516,0.357-0.787l1.601-1.071
					l1.058,1.085c-0.114,0.629-0.343,1.244-0.658,1.802c-0.343,0.601-0.843,1.144-1.372,1.587l0.143-1.544L396.625,477.03z"/>
			</g>
		</g>
	</g>
	<g>
		<g>
			<defs>
				<rect id="SVGID_57_" x="397.055" y="471.199" width="3.344" height="4.102"/>
			</defs>
			<clipPath id="SVGID_58_">
				<use xlink:href="#SVGID_57_"  overflow="visible"/>
			</clipPath>
			<g clip-path="url(#SVGID_58_)">
				<path fill="#FEFFFE" d="M397.683,475.129l1.515-1.014l1.029,1.043c0.057-0.672,0-1.329-0.172-1.973
					c-0.171-0.6-0.428-1.157-0.771-1.672l-1.615-0.172L397.198,473c0.243,0.357,0.4,0.771,0.471,1.215
					C397.726,474.515,397.726,474.829,397.683,475.129z"/>
			</g>
		</g>
	</g>
	<g>
		<g>
			<defs>
				<rect id="SVGID_59_" x="394.396" y="469.041" width="4.73" height="3.773"/>
			</defs>
			<clipPath id="SVGID_60_">
				<use xlink:href="#SVGID_59_"  overflow="visible"/>
			</clipPath>
			<g clip-path="url(#SVGID_60_)">
				<path fill="#FEFFFE" d="M396.983,472.672l0.515-1.602h1.486c-0.343-0.428-0.757-0.714-1.215-1.028c-0.6-0.415-1.286-0.7-2-0.858
					l-1.229,1.043l0.915,1.502c0.286,0.085,0.571,0.214,0.829,0.371S396.769,472.457,396.983,472.672z"/>
			</g>
		</g>
	</g>
	<text transform="matrix(1 0 0 -1 401.1709 471.6836)" fill="#FEFFFE" font-family="'AdventPro-Bold'" font-size="8.2892">R</text>
	<text transform="matrix(1 0 0 -1 405.8442 471.6836)" fill="#FEFFFE" font-family="'AdventPro-Bold'" font-size="8.2892">e</text>
	<text transform="matrix(1 0 0 -1 409.4458 471.6836)" fill="#FEFFFE" font-family="'AdventPro-Bold'" font-size="8.2892">s</text>
	<text transform="matrix(1 0 0 -1 413.019 471.6836)" fill="#FEFFFE" font-family="'AdventPro-Bold'" font-size="8.2892">p</text>
	<text transform="matrix(1 0 0 -1 417.1064 471.6836)" fill="#FEFFFE" font-family="'AdventPro-Bold'" font-size="8.2892">e</text>
	<text transform="matrix(1 0 0 -1 420.6934 471.6836)" fill="#FEFFFE" font-family="'AdventPro-Bold'" font-size="8.2892">c</text>
	<text transform="matrix(1 0 0 -1 423.8662 471.6836)" fill="#FEFFFE" font-family="'AdventPro-Bold'" font-size="8.2892">t</text>
	<text transform="matrix(1 0 0 -1 426.0532 471.6836)" fill="#FEFFFE" font-family="'AdventPro-Bold'" font-size="8.2892">.</text>
	<text transform="matrix(1 0 0 -1 427.1675 471.6836)" fill="#FEFFFE" font-family="'AdventPro-Bold'" font-size="8.2892">l</text>
	<text transform="matrix(1 0 0 -1 428.7397 471.6836)" fill="#FEFFFE" font-family="'AdventPro-Bold'" font-size="8.2892">y</text>
</g>
</svg>
